<?xml version="1.0" encoding="UTF-8"?>
<svg version="1.1" xmlns="http://www.w3.org/2000/svg" width="782" height="782">
<path d="M0 0 C258.06 0 516.12 0 782 0 C782 258.06 782 516.12 782 782 C523.94 782 265.88 782 0 782 C0 523.94 0 265.88 0 0 Z " fill="#FEFEFE" transform="translate(0,0)"/>
<path d="M0 0 C1.23116547 -0.00100708 2.46233093 -0.00201416 3.73080444 -0.00305176 C34.27467521 0.01376143 64.19188736 2.06472415 94.3125 7.25 C95.53839844 7.45947266 96.76429688 7.66894531 98.02734375 7.88476562 C119.84922982 11.63990237 119.84922982 11.63990237 128.93457031 13.71826172 C131.82053824 14.36360444 134.71588272 14.95498399 137.61328125 15.546875 C150.78615384 18.2610065 163.75168224 21.18014629 176.54394531 25.34912109 C178.59529241 26.01662293 180.64984407 26.67429405 182.70605469 27.32666016 C186.39180258 28.49609124 190.07154253 29.68285081 193.75 30.875 C194.91861572 31.24729736 196.08723145 31.61959473 197.29125977 32.00317383 C198.39010498 32.36564209 199.4889502 32.72811035 200.62109375 33.1015625 C201.59876709 33.41947754 202.57644043 33.73739258 203.58374023 34.06494141 C207.78191834 35.88814589 210.45543415 38.0397496 213.10229492 41.77734375 C214.8550981 46.80697305 214.72049996 51.52305354 214.67578125 56.8125 C214.67795654 58.50891884 214.67795654 58.50891884 214.68017578 60.23960876 C214.6789203 63.91001419 214.65375769 67.57971374 214.625 71.25 C214.6190683 72.50217316 214.6131366 73.75434631 214.60702515 75.04446411 C214.51769408 93.51732899 214.2640554 111.86653762 212.3125 130.25 C212.23708984 130.97159302 212.16167969 131.69318604 212.08398438 132.43664551 C205.70310773 193.12835371 191.58042035 251.56395188 166.3125 307.25 C165.7237207 308.56991943 165.7237207 308.56991943 165.12304688 309.91650391 C156.39935501 329.4371107 145.88722072 348.832891 133.44921875 366.24609375 C131.70090674 368.70395835 129.98024362 371.1761872 128.26953125 373.66015625 C127.17976063 375.23182154 126.0899165 376.80343587 125 378.375 C124.47196777 379.14658447 123.94393555 379.91816895 123.39990234 380.71313477 C122.90055176 381.42912842 122.40120117 382.14512207 121.88671875 382.8828125 C121.21515747 383.85565186 121.21515747 383.85565186 120.5300293 384.84814453 C120.12824463 385.31075684 119.72645996 385.77336914 119.3125 386.25 C118.6525 386.25 117.9925 386.25 117.3125 386.25 C117.2403125 386.78496094 117.168125 387.31992187 117.09375 387.87109375 C116.00453797 391.18774438 113.96085644 393.61946167 111.8125 396.3125 C111.3690625 396.87670654 110.925625 397.44091309 110.46875 398.0222168 C109.54769842 399.19004871 108.62317888 400.35515335 107.6953125 401.51757812 C106.36198915 403.18799876 105.04002035 404.86691623 103.71875 406.546875 C99.14297379 412.28145168 99.14297379 412.28145168 97.3125 414.25 C96.6525 414.25 95.9925 414.25 95.3125 414.25 C95.3125 414.91 95.3125 415.57 95.3125 416.25 C94.6525 416.25 93.9925 416.25 93.3125 416.25 C92.94125 417.0853125 92.94125 417.0853125 92.5625 417.9375 C91.08325182 420.67410913 89.37782561 422.92650869 87.3125 425.25 C86.6525 425.25 85.9925 425.25 85.3125 425.25 C84.94125 426.0853125 84.94125 426.0853125 84.5625 426.9375 C81.80884854 432.0317552 77.98428061 435.47172392 73.640625 439.171875 C70.9752083 441.55107246 68.49755262 444.07036047 66 446.625 C61.2644715 451.42305176 56.30065709 455.77371014 50.99267578 459.92919922 C49.05615923 461.45151171 47.13628672 462.99386595 45.21484375 464.53515625 C35.29849934 472.42957411 25.10723684 479.60862845 14.3125 486.25 C13.37535156 486.83007812 12.43820312 487.41015625 11.47265625 488.0078125 C6.63982929 490.78690648 0.76043944 490.87843682 -4.6875 490.25 C-7.51752935 489.17591122 -9.88571963 487.64505955 -12.375 485.9375 C-13.05780029 485.48963135 -13.74060059 485.0417627 -14.4440918 484.58032227 C-20.93474482 480.24896572 -27.07657729 475.48699994 -33.10742188 470.54199219 C-34.57674324 469.34056316 -36.06124239 468.1577622 -37.546875 466.9765625 C-48.65967799 458.07989652 -58.8142599 448.22224138 -68.90783691 438.20489502 C-69.91078786 437.20998785 -70.91521423 436.21656535 -71.92126465 435.22479248 C-78.64993005 428.58155344 -84.78848361 421.64040722 -90.6875 414.25 C-91.65796735 413.10177976 -92.63463726 411.95873195 -93.62109375 410.82421875 C-99.1926528 404.40084568 -104.29501424 397.80707307 -109.16015625 390.8359375 C-110.85434942 388.41074727 -112.58973143 386.02595522 -114.37109375 383.6640625 C-121.47762848 374.23085564 -127.67682869 364.41064036 -133.6875 354.25 C-134.62355948 352.67960497 -135.55975707 351.10929226 -136.49609375 349.5390625 C-137.39405056 348.02652901 -138.29121595 346.51352532 -139.1875 345 C-139.59685791 344.30922363 -140.00621582 343.61844727 -140.42797852 342.90673828 C-142.67187474 339.08624063 -144.72536416 335.22510421 -146.6875 331.25 C-147.40433213 329.90123276 -148.12611658 328.55509136 -148.8515625 327.2109375 C-159.2300758 307.92506462 -167.58384223 288.03224099 -175.40917969 267.5859375 C-176.20840744 265.50025225 -177.01288674 263.41656306 -177.82519531 261.3359375 C-183.62501604 246.46954567 -187.81377692 231.33798387 -191.74755859 215.89428711 C-192.7153135 212.1421631 -193.72671966 208.40352883 -194.7421875 204.6640625 C-207.02675047 158.63563819 -211.71664849 109.72536687 -212.125 62.1875 C-212.13730652 61.37541077 -212.14961304 60.56332153 -212.16229248 59.72662354 C-212.19171629 57.43045089 -212.19252258 55.13615116 -212.18359375 52.83984375 C-212.18544678 51.53909912 -212.1872998 50.23835449 -212.18920898 48.89819336 C-211.49394997 43.84259463 -209.73344338 40.17673724 -205.94018555 36.60449219 C-200.37213424 33.33918851 -194.67737554 31.32782619 -188.5 29.5 C-187.39793213 29.16709961 -186.29586426 28.83419922 -185.16040039 28.49121094 C-170.61224343 24.20258001 -155.83751782 20.74439125 -141.07495117 17.28295898 C-138.1709717 16.60204391 -135.27052803 15.90841117 -132.37231445 15.20336914 C-122.63396792 12.8466267 -112.87277572 10.88982943 -103 9.1875 C-101.8993924 8.99565125 -101.8993924 8.99565125 -100.77655029 8.79992676 C-85.03325956 6.05896254 -69.27234081 3.77178564 -53.375 2.125 C-52.28372803 2.01140137 -52.28372803 2.01140137 -51.17041016 1.89550781 C-34.1280692 0.23960218 -17.10989671 0.00974866 0 0 Z " fill="#D92937" transform="translate(399.6875,61.75)"/>
<path d="M0 0 C1.23116547 -0.00100708 2.46233093 -0.00201416 3.73080444 -0.00305176 C34.27467521 0.01376143 64.19188736 2.06472415 94.3125 7.25 C95.53839844 7.45947266 96.76429688 7.66894531 98.02734375 7.88476562 C119.84922982 11.63990237 119.84922982 11.63990237 128.93457031 13.71826172 C131.82053824 14.36360444 134.71588272 14.95498399 137.61328125 15.546875 C150.78615384 18.2610065 163.75168224 21.18014629 176.54394531 25.34912109 C178.59529241 26.01662293 180.64984407 26.67429405 182.70605469 27.32666016 C186.39180258 28.49609124 190.07154253 29.68285081 193.75 30.875 C194.91861572 31.24729736 196.08723145 31.61959473 197.29125977 32.00317383 C198.39010498 32.36564209 199.4889502 32.72811035 200.62109375 33.1015625 C201.59876709 33.41947754 202.57644043 33.73739258 203.58374023 34.06494141 C207.78191834 35.88814589 210.45543415 38.0397496 213.10229492 41.77734375 C214.8550981 46.80697305 214.72049996 51.52305354 214.67578125 56.8125 C214.67795654 58.50891884 214.67795654 58.50891884 214.68017578 60.23960876 C214.6789203 63.91001419 214.65375769 67.57971374 214.625 71.25 C214.6190683 72.50217316 214.6131366 73.75434631 214.60702515 75.04446411 C214.51769408 93.51732899 214.2640554 111.86653762 212.3125 130.25 C212.23708984 130.97159302 212.16167969 131.69318604 212.08398438 132.43664551 C205.70310773 193.12835371 191.58042035 251.56395188 166.3125 307.25 C165.7237207 308.56991943 165.7237207 308.56991943 165.12304688 309.91650391 C156.39935501 329.4371107 145.88722072 348.832891 133.44921875 366.24609375 C131.70090674 368.70395835 129.98024362 371.1761872 128.26953125 373.66015625 C127.17976063 375.23182154 126.0899165 376.80343587 125 378.375 C124.47196777 379.14658447 123.94393555 379.91816895 123.39990234 380.71313477 C122.90055176 381.42912842 122.40120117 382.14512207 121.88671875 382.8828125 C121.21515747 383.85565186 121.21515747 383.85565186 120.5300293 384.84814453 C120.12824463 385.31075684 119.72645996 385.77336914 119.3125 386.25 C118.6525 386.25 117.9925 386.25 117.3125 386.25 C117.2403125 386.78496094 117.168125 387.31992187 117.09375 387.87109375 C116.00453797 391.18774438 113.96085644 393.61946167 111.8125 396.3125 C111.3690625 396.87670654 110.925625 397.44091309 110.46875 398.0222168 C109.54769842 399.19004871 108.62317888 400.35515335 107.6953125 401.51757812 C106.36198915 403.18799876 105.04002035 404.86691623 103.71875 406.546875 C99.14297379 412.28145168 99.14297379 412.28145168 97.3125 414.25 C96.6525 414.25 95.9925 414.25 95.3125 414.25 C95.3125 414.91 95.3125 415.57 95.3125 416.25 C94.6525 416.25 93.9925 416.25 93.3125 416.25 C92.94125 417.0853125 92.94125 417.0853125 92.5625 417.9375 C91.08325182 420.67410913 89.37782561 422.92650869 87.3125 425.25 C86.6525 425.25 85.9925 425.25 85.3125 425.25 C84.94125 426.0853125 84.94125 426.0853125 84.5625 426.9375 C81.80884854 432.0317552 77.98428061 435.47172392 73.640625 439.171875 C70.9752083 441.55107246 68.49755262 444.07036047 66 446.625 C61.2644715 451.42305176 56.30065709 455.77371014 50.99267578 459.92919922 C49.05615923 461.45151171 47.13628672 462.99386595 45.21484375 464.53515625 C35.29849934 472.42957411 25.10723684 479.60862845 14.3125 486.25 C13.37535156 486.83007812 12.43820312 487.41015625 11.47265625 488.0078125 C6.63982929 490.78690648 0.76043944 490.87843682 -4.6875 490.25 C-7.51752935 489.17591122 -9.88571963 487.64505955 -12.375 485.9375 C-13.05780029 485.48963135 -13.74060059 485.0417627 -14.4440918 484.58032227 C-20.93474482 480.24896572 -27.07657729 475.48699994 -33.10742188 470.54199219 C-34.57674324 469.34056316 -36.06124239 468.1577622 -37.546875 466.9765625 C-48.65967799 458.07989652 -58.8142599 448.22224138 -68.90783691 438.20489502 C-69.91078786 437.20998785 -70.91521423 436.21656535 -71.92126465 435.22479248 C-78.64993005 428.58155344 -84.78848361 421.64040722 -90.6875 414.25 C-91.65796735 413.10177976 -92.63463726 411.95873195 -93.62109375 410.82421875 C-99.1926528 404.40084568 -104.29501424 397.80707307 -109.16015625 390.8359375 C-110.85434942 388.41074727 -112.58973143 386.02595522 -114.37109375 383.6640625 C-121.47762848 374.23085564 -127.67682869 364.41064036 -133.6875 354.25 C-134.62355948 352.67960497 -135.55975707 351.10929226 -136.49609375 349.5390625 C-137.39405056 348.02652901 -138.29121595 346.51352532 -139.1875 345 C-139.59685791 344.30922363 -140.00621582 343.61844727 -140.42797852 342.90673828 C-142.67187474 339.08624063 -144.72536416 335.22510421 -146.6875 331.25 C-147.40433213 329.90123276 -148.12611658 328.55509136 -148.8515625 327.2109375 C-159.2300758 307.92506462 -167.58384223 288.03224099 -175.40917969 267.5859375 C-176.20840744 265.50025225 -177.01288674 263.41656306 -177.82519531 261.3359375 C-183.62501604 246.46954567 -187.81377692 231.33798387 -191.74755859 215.89428711 C-192.7153135 212.1421631 -193.72671966 208.40352883 -194.7421875 204.6640625 C-207.02675047 158.63563819 -211.71664849 109.72536687 -212.125 62.1875 C-212.13730652 61.37541077 -212.14961304 60.56332153 -212.16229248 59.72662354 C-212.19171629 57.43045089 -212.19252258 55.13615116 -212.18359375 52.83984375 C-212.18544678 51.53909912 -212.1872998 50.23835449 -212.18920898 48.89819336 C-211.49394997 43.84259463 -209.73344338 40.17673724 -205.94018555 36.60449219 C-200.37213424 33.33918851 -194.67737554 31.32782619 -188.5 29.5 C-187.39793213 29.16709961 -186.29586426 28.83419922 -185.16040039 28.49121094 C-170.61224343 24.20258001 -155.83751782 20.74439125 -141.07495117 17.28295898 C-138.1709717 16.60204391 -135.27052803 15.90841117 -132.37231445 15.20336914 C-122.63396792 12.8466267 -112.87277572 10.88982943 -103 9.1875 C-101.8993924 8.99565125 -101.8993924 8.99565125 -100.77655029 8.79992676 C-85.03325956 6.05896254 -69.27234081 3.77178564 -53.375 2.125 C-52.28372803 2.01140137 -52.28372803 2.01140137 -51.17041016 1.89550781 C-34.1280692 0.23960218 -17.10989671 0.00974866 0 0 Z M-54.40429688 18.83984375 C-57.56350134 19.23450939 -60.72381966 19.57885851 -63.890625 19.90625 C-107.11181892 24.49269045 -154.37193291 32.43652779 -194.6875 49.25 C-195.19705803 85.38419696 -193.57935526 120.54972144 -187.6875 156.25 C-187.47754395 157.53938477 -187.26758789 158.82876953 -187.05126953 160.15722656 C-179.15679336 208.20609372 -164.98471485 254.97821033 -144.6875 299.25 C-144.295625 300.11351074 -143.90375 300.97702148 -143.5 301.86669922 C-126.7905209 338.59999421 -104.55986569 372.34914127 -78.6875 403.25 C-78.27031204 403.75091156 -77.85312408 404.25182312 -77.42329407 404.76791382 C-70.26284573 413.3440629 -62.77962581 421.47708998 -54.85083008 429.34741211 C-53.11495269 431.07248477 -51.3901491 432.80811991 -49.66601562 434.54492188 C-42.98136018 441.23795207 -36.12544606 447.39326139 -28.6875 453.25 C-27.39706156 454.30924585 -26.10899908 455.37139838 -24.82421875 456.4375 C-18.74856334 461.41723566 -12.57915537 466.23249106 -6.0625 470.625 C-5.2111145 471.22441406 -5.2111145 471.22441406 -4.3425293 471.8359375 C-2.54465638 473.06720861 -2.54465638 473.06720861 0.3125 474.25 C2.93806457 473.80252619 2.93806457 473.80252619 5.3125 472.25 C6.68341797 471.49589844 6.68341797 471.49589844 8.08203125 470.7265625 C24.79190908 460.55906303 40.08194843 448.25300048 54.390625 434.94921875 C57.10128029 432.44512409 59.8552361 430.00073155 62.625 427.5625 C66.24989228 424.313394 69.47571517 420.92251563 72.609375 417.203125 C74.38045457 415.17207045 76.25211054 413.31193232 78.1875 411.4375 C82.12210716 407.55596076 85.58734097 403.3873576 89.04296875 399.078125 C90.48482206 397.28139214 91.94397359 395.49830131 93.42578125 393.734375 C128.91423808 351.43369153 153.71873014 301.28481198 171.3125 249.25 C171.64620605 248.26805664 171.97991211 247.28611328 172.32373047 246.27441406 C179.23468161 225.77157181 184.12652928 205.00506876 188.0625 183.75 C188.21138672 182.94997559 188.36027344 182.14995117 188.51367188 181.32568359 C190.29828168 171.67491034 191.80151999 162.04981667 192.89160156 152.29492188 C193.3125 149.25 193.3125 149.25 194.3125 147.25 C194.59836709 144.35952449 194.83345998 141.48269955 195.03125 138.5859375 C195.09405151 137.71989899 195.15685303 136.85386047 195.22155762 135.96157837 C195.42253315 133.18298856 195.6178758 130.40404134 195.8125 127.625 C196.00784908 124.86744268 196.20444977 122.10998851 196.40344238 119.35269165 C196.52707211 117.63652627 196.64853367 115.92020283 196.76745605 114.20370483 C197.02725883 110.5703842 197.34718335 107.00160627 197.85131836 103.39111328 C198.54039595 98.1176704 198.43619549 92.84071463 198.41015625 87.53125 C198.4087413 86.43276733 198.40732635 85.33428467 198.40586853 84.20251465 C198.40030257 80.71831457 198.38775639 77.23418042 198.375 73.75 C198.3699806 71.3776051 198.36541846 69.00520918 198.36132812 66.6328125 C198.3503443 60.83851944 198.3336403 55.04426443 198.3125 49.25 C159.52837332 37.00808292 120.66567254 26.85836534 80.3125 21.25 C78.80381348 21.03730469 78.80381348 21.03730469 77.26464844 20.8203125 C34.08388087 14.84295519 -11.10716009 13.35042949 -54.40429688 18.83984375 Z " fill="#AF9565" transform="translate(399.6875,61.75)"/>
<path d="M0 0 C9.14240396 5.42705837 15.59413496 14.44488334 18.24609375 24.75390625 C20.22485915 37.39023266 19.5963461 50.83926272 12.25390625 61.65625 C0.88889398 75.77727774 -17.23410941 79.87313598 -34.18359375 83.59765625 C-43.65179244 85.72057554 -51.60709356 88.32128501 -57.30859375 96.59765625 C-58.87239879 99.72526633 -58.4518007 103.04368141 -58.43359375 106.47265625 C-58.43746094 107.19324219 -58.44132813 107.91382813 -58.4453125 108.65625 C-58.43895973 112.10580636 -58.39562349 115.30205816 -57.30859375 118.59765625 C-50.01615215 118.33247656 -43.84951195 116.20045941 -37.07446289 113.68115234 C-31.47072915 111.59765625 -31.47072915 111.59765625 -29.30859375 111.59765625 C-29.67767892 118.85633133 -29.67767892 118.85633133 -32.80859375 122.53515625 C-34.04609375 123.55609375 -34.04609375 123.55609375 -35.30859375 124.59765625 C-35.63859375 124.92765625 -35.96859375 125.25765625 -36.30859375 125.59765625 C-28.8076275 127.23396337 -21.30408191 128.31523482 -13.68359375 129.22265625 C-12.03423828 129.42375 -12.03423828 129.42375 -10.3515625 129.62890625 C-7.67096717 129.9552396 -4.99000277 130.27809019 -2.30859375 130.59765625 C-10.05405823 138.61808335 -21.83225277 138.67398814 -32.30859375 139.59765625 C-21.27723341 142.18465668 -10.61684916 143.22200974 0.69140625 143.59765625 C1.16880242 156.02763805 -0.30086295 165.1879166 -7.30859375 175.59765625 C-8.25734375 176.48453125 -9.20609375 177.37140625 -10.18359375 178.28515625 C-10.88484375 179.04828125 -11.58609375 179.81140625 -12.30859375 180.59765625 C-12.25467182 183.84804114 -12.25467182 183.84804114 -11.30859375 186.59765625 C-8.33859375 187.58765625 -8.33859375 187.58765625 -5.30859375 188.59765625 C-7.30859375 190.59765625 -7.30859375 190.59765625 -11.24609375 190.78515625 C-13.9849553 190.75955941 -15.64866907 190.48429781 -18.30859375 189.59765625 C-16.32859375 192.56765625 -16.32859375 192.56765625 -14.30859375 195.59765625 C-21.57013221 196.08996394 -21.57013221 196.08996394 -25.30859375 193.59765625 C-25.96859375 192.93765625 -26.62859375 192.27765625 -27.30859375 191.59765625 C-27.14746094 192.14292969 -26.98632812 192.68820312 -26.8203125 193.25 C-26.23460872 195.93708374 -26.13979685 198.41080107 -26.12109375 201.16015625 C-26.10691406 202.11019531 -26.09273437 203.06023437 -26.078125 204.0390625 C-26.30859375 206.59765625 -26.30859375 206.59765625 -28.30859375 209.59765625 C-28.96859375 209.59765625 -29.62859375 209.59765625 -30.30859375 209.59765625 C-30.50453125 209.02917969 -30.70046875 208.46070313 -30.90234375 207.875 C-33.97639208 199.93812521 -38.88147655 195.22163908 -46.30859375 191.16015625 C-55.43135358 187.51420898 -66.87980265 188.56339385 -75.7578125 192.30859375 C-80.09406045 194.49995948 -84.23766453 196.94846153 -88.30859375 199.59765625 C-85.32710024 199.59765625 -83.38039367 199.10775498 -80.55859375 198.22265625 C-79.66398438 197.95066406 -78.769375 197.67867187 -77.84765625 197.3984375 C-75.86418277 196.77288048 -73.89547685 196.10044845 -71.93359375 195.41015625 C-63.88939383 193.60714592 -54.6622102 193.40594983 -47.30859375 197.59765625 C-44.98139102 199.72249353 -43.03367952 201.95928978 -41.30859375 204.59765625 C-41.30859375 204.92765625 -41.30859375 205.25765625 -41.30859375 205.59765625 C-42.04464844 205.7678125 -42.78070313 205.93796875 -43.5390625 206.11328125 C-50.5533045 207.85525945 -55.16202735 209.37780665 -59.30859375 215.59765625 C-59.76631438 218.3363858 -59.76631438 218.3363858 -59.93359375 221.28515625 C-60.00835937 222.27902344 -60.083125 223.27289063 -60.16015625 224.296875 C-60.23363281 225.43576172 -60.23363281 225.43576172 -60.30859375 226.59765625 C-59.74011719 226.49324219 -59.17164063 226.38882813 -58.5859375 226.28125 C-55.92401884 226.00128193 -53.92262728 225.97328518 -51.30859375 226.59765625 C-49.10816072 228.67015713 -47.56282106 230.80784105 -45.9140625 233.3359375 C-44.22862642 235.71031096 -42.7967446 237.09905679 -40.30859375 238.59765625 C-34.53377441 239.15650973 -31.41959902 238.51823069 -26.30859375 235.59765625 C-25.64859375 235.59765625 -24.98859375 235.59765625 -24.30859375 235.59765625 C-24.2945752 236.43574829 -24.2945752 236.43574829 -24.28027344 237.29077148 C-24.22590387 239.87305948 -24.14239666 242.45366223 -24.05859375 245.03515625 C-24.04441406 245.91365234 -24.03023437 246.79214844 -24.015625 247.69726562 C-23.68879123 256.55446077 -20.5904667 263.55515899 -15.30859375 270.59765625 C-14.64859375 270.92765625 -13.98859375 271.25765625 -13.30859375 271.59765625 C-13.30859375 272.25765625 -13.30859375 272.91765625 -13.30859375 273.59765625 C-15.61859375 274.25765625 -17.92859375 274.91765625 -20.30859375 275.59765625 C-19.97859375 276.25765625 -19.64859375 276.91765625 -19.30859375 277.59765625 C-19.23793758 279.6382063 -19.22437399 281.68099882 -19.24609375 283.72265625 C-19.25511719 284.81835938 -19.26414062 285.9140625 -19.2734375 287.04296875 C-19.29083984 288.30753906 -19.29083984 288.30753906 -19.30859375 289.59765625 C-23.58569074 289.59765625 -24.86789751 288.89145374 -28.30859375 286.59765625 C-28.45554687 287.50257813 -28.45554687 287.50257813 -28.60546875 288.42578125 C-30.13435662 296.59742331 -30.13435662 296.59742331 -34.30859375 299.59765625 C-34.96859375 299.59765625 -35.62859375 299.59765625 -36.30859375 299.59765625 C-36.63859375 298.93765625 -36.96859375 298.27765625 -37.30859375 297.59765625 C-39.3332263 296.94552333 -39.3332263 296.94552333 -41.30859375 296.59765625 C-41.37046875 297.15453125 -41.43234375 297.71140625 -41.49609375 298.28515625 C-42.64233247 301.54752798 -44.80249572 303.28433499 -47.30859375 305.59765625 C-48.95859375 304.27765625 -50.60859375 302.95765625 -52.30859375 301.59765625 C-54.35696257 302.16127927 -54.35696257 302.16127927 -56.30859375 303.59765625 C-57.12443943 306.65674038 -57.12443943 306.65674038 -57.30859375 309.59765625 C-60.5206331 307.09940342 -63.48352512 304.52735705 -66.30859375 301.59765625 C-67.29859375 302.25765625 -68.28859375 302.91765625 -69.30859375 303.59765625 C-71.63407382 304.29122048 -73.9673982 304.95914837 -76.30859375 305.59765625 C-76.96859375 305.92765625 -77.62859375 306.25765625 -78.30859375 306.59765625 C-79.7550239 302.2583658 -79.82808539 298.13207612 -79.30859375 293.59765625 C-77.74609375 290.97265625 -77.74609375 290.97265625 -75.30859375 289.59765625 C-70.74436924 289.09974085 -67.43100703 289.59891042 -63.30859375 291.59765625 C-64.29859375 290.11265625 -64.29859375 290.11265625 -65.30859375 288.59765625 C-66.46359375 288.45328125 -67.61859375 288.30890625 -68.80859375 288.16015625 C-69.96359375 287.97453125 -71.11859375 287.78890625 -72.30859375 287.59765625 C-73.00796907 286.28118506 -73.67588508 284.94743474 -74.30859375 283.59765625 C-77.36767788 282.78181057 -77.36767788 282.78181057 -80.30859375 282.59765625 C-78.799949 278.75746962 -76.78804561 276.79122373 -73.30859375 274.59765625 C-70.41454922 273.69434613 -68.43775012 273.59765625 -65.30859375 273.59765625 C-62.53091167 275.54954096 -61.4285437 277.37774801 -59.80859375 280.34765625 C-59.31359375 281.09015625 -58.81859375 281.83265625 -58.30859375 282.59765625 C-56.98859375 282.59765625 -55.66859375 282.59765625 -54.30859375 282.59765625 C-51.74993548 277.800172 -51.55229798 272.89172666 -52.30859375 267.59765625 C-54.40931406 263.23462177 -55.85524427 262.16399373 -60.3359375 260.41796875 C-67.15712408 258.35276972 -74.01507748 257.0042145 -81.078125 256.08984375 C-82.18220703 255.84621094 -82.18220703 255.84621094 -83.30859375 255.59765625 C-83.63859375 254.93765625 -83.96859375 254.27765625 -84.30859375 253.59765625 C-82.98859375 252.93765625 -81.66859375 252.27765625 -80.30859375 251.59765625 C-81.41976562 251.05238281 -82.5309375 250.50710938 -83.67578125 249.9453125 C-96.55461802 243.4790964 -109.23745561 236.02161044 -114.3359375 221.71484375 C-116.73054218 213.08543885 -116.87521446 205.36567863 -115.30859375 196.59765625 C-114.4165625 196.51128906 -113.52453125 196.42492187 -112.60546875 196.3359375 C-111.435 196.19542969 -110.26453125 196.05492187 -109.05859375 195.91015625 C-107.31835938 195.71873047 -107.31835938 195.71873047 -105.54296875 195.5234375 C-101.43861726 194.34864124 -100.41864691 193.29024929 -98.30859375 189.59765625 C-97.43582897 186.62608516 -96.81427693 183.65171652 -96.30859375 180.59765625 C-96.89125 180.6133667 -97.47390625 180.62907715 -98.07421875 180.64526367 C-118.29575481 181.11622515 -140.84288843 180.20137667 -157.30859375 166.59765625 C-157.30859375 165.60765625 -157.30859375 164.61765625 -157.30859375 163.59765625 C-156.53515625 163.39011719 -155.76171875 163.18257812 -154.96484375 162.96875 C-147.59943419 160.79012019 -142.62220317 158.16131788 -137.30859375 152.59765625 C-138.16324219 153.03078125 -138.16324219 153.03078125 -139.03515625 153.47265625 C-147.4694156 157.64631036 -154.77879573 160.92626997 -164.30859375 160.59765625 C-164.53546875 161.29890625 -164.76234375 162.00015625 -164.99609375 162.72265625 C-167.07165152 167.26911613 -169.57795504 170.75156621 -174.12109375 172.97265625 C-174.84296875 173.17890625 -175.56484375 173.38515625 -176.30859375 173.59765625 C-175.64859375 174.58765625 -174.98859375 175.57765625 -174.30859375 176.59765625 C-176.61859375 178.90765625 -178.92859375 181.21765625 -181.30859375 183.59765625 C-178.47202386 186.63034227 -178.47202386 186.63034227 -175.30859375 188.59765625 C-179.80859375 192.59765625 -179.80859375 192.59765625 -184.30859375 192.59765625 C-183.81359375 193.34015625 -183.81359375 193.34015625 -183.30859375 194.09765625 C-181.90133651 197.61579936 -181.64972052 200.85893372 -182.30859375 204.59765625 C-184.30859375 207.09765625 -184.30859375 207.09765625 -186.30859375 208.59765625 C-187.62859375 205.62765625 -188.94859375 202.65765625 -190.30859375 199.59765625 C-190.74171875 201.04140625 -191.17484375 202.48515625 -191.62109375 203.97265625 C-192.72863361 207.66445577 -192.95196525 208.35990391 -196.30859375 210.59765625 C-197.29859375 208.28765625 -198.28859375 205.97765625 -199.30859375 203.59765625 C-199.72109375 204.71140625 -200.13359375 205.82515625 -200.55859375 206.97265625 C-201.66405891 209.5908632 -202.05740162 210.43258714 -204.49609375 212.03515625 C-205.09421875 212.22078125 -205.69234375 212.40640625 -206.30859375 212.59765625 C-206.30859375 210.28765625 -206.30859375 207.97765625 -206.30859375 205.59765625 C-206.96859375 205.59765625 -207.62859375 205.59765625 -208.30859375 205.59765625 C-208.41171875 206.36078125 -208.51484375 207.12390625 -208.62109375 207.91015625 C-209.37769205 210.86776779 -210.126322 211.58996624 -212.30859375 213.59765625 C-213.00176893 214.91740259 -213.67186252 216.24977066 -214.30859375 217.59765625 C-214.6953125 217.12714844 -215.08203125 216.65664063 -215.48046875 216.171875 C-218.20389711 212.91589505 -220.72141249 209.94312092 -224.30859375 207.59765625 C-227.79608689 210.38765076 -230.81016596 212.85001456 -233.30859375 216.59765625 C-235.60202122 210.70027133 -236.65408089 205.93158707 -236.30859375 199.59765625 C-236.96859375 199.59765625 -237.62859375 199.59765625 -238.30859375 199.59765625 C-238.30859375 198.93765625 -238.30859375 198.27765625 -238.30859375 197.59765625 C-240.94859375 197.92765625 -243.58859375 198.25765625 -246.30859375 198.59765625 C-245.52117516 197.13702482 -244.72850325 195.67922452 -243.93359375 194.22265625 C-243.49273437 193.41054688 -243.051875 192.5984375 -242.59765625 191.76171875 C-241.30859375 189.59765625 -241.30859375 189.59765625 -239.30859375 187.59765625 C-236.68359375 187.47265625 -236.68359375 187.47265625 -234.30859375 187.59765625 C-235.42800357 182.74688037 -236.44206535 179.81976325 -240.30859375 176.59765625 C-235.8441972 173.62139188 -231.5420587 173.98644866 -226.30859375 174.59765625 C-223.12109375 176.22265625 -223.12109375 176.22265625 -221.30859375 178.59765625 C-220.99609375 181.84765625 -220.99609375 181.84765625 -221.30859375 184.59765625 C-216.64035524 183.85073809 -214.16939755 182.95192166 -211.24609375 179.16015625 C-208.95612641 175.87246035 -207.2833055 172.45650688 -205.55859375 168.84765625 C-203.39215924 164.72917397 -201.98133333 162.97915192 -197.55859375 161.47265625 C-196.70136719 161.20710937 -195.84414063 160.9415625 -194.9609375 160.66796875 C-189.81198584 158.59018855 -186.15115469 154.49873334 -182.30859375 150.59765625 C-181.68082031 149.96859375 -181.05304688 149.33953125 -180.40625 148.69140625 C-172.244455 139.95587963 -165.00555953 128.35433233 -162.30859375 116.59765625 C-158.59687448 117.83489601 -157.05325885 119.85299115 -154.30859375 122.59765625 C-150.96290107 124.75002747 -148.24246663 124.839247 -144.30859375 124.78515625 C-143.27734375 124.77871094 -142.24609375 124.77226562 -141.18359375 124.765625 C-138.08823192 124.67398976 -138.08823192 124.67398976 -134.30859375 123.59765625 C-135.95859375 121.28765625 -137.60859375 118.97765625 -139.30859375 116.59765625 C-138.64859375 116.26765625 -137.98859375 115.93765625 -137.30859375 115.59765625 C-136.79296875 116.34015625 -136.27734375 117.08265625 -135.74609375 117.84765625 C-129.04224286 125.4109752 -120.79240987 125.6700243 -111.30859375 126.59765625 C-111.30859375 127.25765625 -111.30859375 127.91765625 -111.30859375 128.59765625 C-117.7516284 134.04466622 -125.40787904 136.96408468 -133.30859375 139.59765625 C-123.17281158 140.40731932 -115.78484704 139.43576731 -107.30859375 133.59765625 C-104.41984813 131.10242397 -101.8015433 128.48654485 -99.30859375 125.59765625 C-98.64859375 125.92765625 -97.98859375 126.25765625 -97.30859375 126.59765625 C-96.69665953 128.95148243 -96.17630705 131.28129216 -95.68359375 133.66015625 C-92.02730874 149.55314365 -83.95148031 164.97313308 -70.02734375 174.0625 C-59.69970894 179.89405242 -48.9459907 183.45003917 -37.12109375 180.9140625 C-27.66203341 178.27559775 -21.24905953 175.06037675 -15.93359375 166.66015625 C-13.73041862 162.70282265 -12.2689381 159.01524027 -11.30859375 154.59765625 C-12.58605469 154.63890625 -13.86351562 154.68015625 -15.1796875 154.72265625 C-20.43296622 154.72265625 -25.26877166 153.7693299 -30.37109375 152.59765625 C-31.23669922 152.406875 -32.10230469 152.21609375 -32.99414062 152.01953125 C-35.10083036 151.55396446 -37.20499839 151.07701064 -39.30859375 150.59765625 C-38.64859375 152.57765625 -37.98859375 154.55765625 -37.30859375 156.59765625 C-47.34007987 149.45986805 -58.49962199 140.57810639 -65.43359375 130.34765625 C-65.91054688 129.661875 -66.3875 128.97609375 -66.87890625 128.26953125 C-70.63017439 121.25896457 -71.86853876 114.5599978 -71.80859375 106.66015625 C-71.80287354 105.78206299 -71.79715332 104.90396973 -71.79125977 103.99926758 C-71.60436992 97.2252974 -70.55688015 92.0489013 -66.30859375 86.59765625 C-65.82390625 85.95957031 -65.33921875 85.32148438 -64.83984375 84.6640625 C-56.03001039 74.6234436 -41.68124812 71.3349375 -29.1328125 68.7109375 C-16.932231 66.12842348 -5.07602365 63.0406859 2.69140625 52.59765625 C6.87117842 44.67050213 7.07372313 35.26812819 4.96484375 26.6171875 C1.47555658 17.24150123 -4.42844401 11.90399393 -13.30859375 7.59765625 C-23.26818584 3.808681 -35.36000006 4.31174297 -45.08203125 8.3984375 C-48.13533093 10.04293399 -49.80856689 11.44759985 -51.30859375 14.59765625 C-51.38781113 18.47930809 -50.7921676 20.04081364 -48.24609375 22.97265625 C-44.16851412 25.2283386 -41.94405739 25.11270777 -37.30859375 24.59765625 C-34.72907691 23.66521754 -34.72907691 23.66521754 -33.30859375 21.59765625 C-32.72513899 18.55512117 -32.72513899 18.55512117 -33.30859375 15.59765625 C-36.4962174 13.47257381 -38.57371598 13.09563995 -42.30859375 12.59765625 C-39.8344991 10.22252539 -38.37473727 9.60745529 -34.93359375 9.09765625 C-30.15246311 9.75712254 -28.68425268 11.22199732 -25.30859375 14.59765625 C-23.72315868 17.7685264 -23.96793938 20.07756109 -24.30859375 23.59765625 C-26.43206311 28.92617516 -29.56009049 32.67331251 -34.83984375 34.98828125 C-39.91454486 36.24089735 -45.12575716 35.88208021 -50.30859375 35.59765625 C-50.2621875 36.34789062 -50.21578125 37.098125 -50.16796875 37.87109375 C-49.9032828 45.37683109 -50.97507328 50.87108817 -54.30859375 57.59765625 C-54.96859375 57.59765625 -55.62859375 57.59765625 -56.30859375 57.59765625 C-56.44136719 56.53804687 -56.57414063 55.4784375 -56.7109375 54.38671875 C-56.8891325 52.99867346 -57.06752835 51.61065394 -57.24609375 50.22265625 C-57.37661133 49.17464844 -57.37661133 49.17464844 -57.50976562 48.10546875 C-57.97177503 44.2298205 -57.97177503 44.2298205 -59.30859375 40.59765625 C-61.78359375 46.53765625 -61.78359375 46.53765625 -64.30859375 52.59765625 C-64.63859375 52.59765625 -64.96859375 52.59765625 -65.30859375 52.59765625 C-65.35757813 51.44007813 -65.4065625 50.2825 -65.45703125 49.08984375 C-65.53210853 47.55075955 -65.60765418 46.01169815 -65.68359375 44.47265625 C-65.71453125 43.71210938 -65.74546875 42.9515625 -65.77734375 42.16796875 C-66.01096275 37.65133467 -66.63513492 33.85613278 -68.30859375 29.59765625 C-70.77160798 32.06067048 -71.07625896 33.87125661 -71.93359375 37.22265625 C-72.19398438 38.22554687 -72.454375 39.2284375 -72.72265625 40.26171875 C-72.91601562 41.03257812 -73.109375 41.8034375 -73.30859375 42.59765625 C-73.63859375 42.59765625 -73.96859375 42.59765625 -74.30859375 42.59765625 C-74.79743326 29.01878099 -73.40335749 18.87886733 -65.30859375 7.59765625 C-64.00463143 6.2355851 -62.67839581 4.89349492 -61.30859375 3.59765625 C-62.27796875 3.04078125 -63.24734375 2.48390625 -64.24609375 1.91015625 C-67.30859375 -0.40234375 -67.30859375 -0.40234375 -68 -3.046875 C-68.15275391 -4.21283203 -68.15275391 -4.21283203 -68.30859375 -5.40234375 C-67.61822021 -5.39187012 -66.92784668 -5.38139648 -66.21655273 -5.37060547 C-63.05977076 -5.32878678 -59.9030473 -5.30293573 -56.74609375 -5.27734375 C-55.11704102 -5.25220703 -55.11704102 -5.25220703 -53.45507812 -5.2265625 C-9.72299943 -4.960714 -9.72299943 -4.960714 0 0 Z " fill="#FEFBFB" transform="translate(511.30859375,114.40234375)"/>
<path d="M0 0 C0.98819733 -0.00423477 1.97639465 -0.00846954 2.99453735 -0.01283264 C6.20733882 -0.02273272 9.41999842 -0.02274716 12.6328125 -0.01953125 C14.28349731 -0.01862488 14.28349731 -0.01862488 15.9675293 -0.0177002 C80.63708929 0.07866718 143.46832165 10.11489543 204.93579102 30.2734375 C208.19311826 31.30595303 211.46875558 32.24171809 214.7578125 33.16796875 C215.07887912 59.82571987 215.18467394 86.1695007 212.11376953 112.67724609 C211.72909839 116.44955605 211.49910027 120.21436637 211.28515625 124 C210.98518395 128.8737605 210.44226394 133.41688688 209.24853516 138.14550781 C208.37803216 141.73319279 207.95123106 145.38940811 207.4453125 149.04296875 C196.43867223 224.58691121 169.03878023 298.75013344 123.19775391 360.23291016 C121.90730949 361.96706791 120.63211784 363.71094856 119.36328125 365.4609375 C109.48115414 378.93980277 98.30533271 391.83172189 86.3671875 403.5234375 C84.75330385 405.17257589 83.28812701 406.88844095 81.8203125 408.66796875 C79.14537346 411.84138724 76.22116067 414.49563979 73.05859375 417.17578125 C70.40471192 419.47370949 67.87313853 421.88332448 65.3203125 424.29296875 C54.0977095 434.71460591 41.49525727 443.69892303 28.7578125 452.16796875 C27.8296875 452.8125 26.9015625 453.45703125 25.9453125 454.12109375 C25.0790625 454.6934375 24.2128125 455.26578125 23.3203125 455.85546875 C22.57910156 456.35433594 21.83789062 456.85320312 21.07421875 457.3671875 C17.58327199 458.57400721 16.09229342 457.7378376 12.7578125 456.16796875 C9.64518028 454.18795039 6.70215213 452.01358656 3.7578125 449.79296875 C2.9212915 449.1688208 2.08477051 448.54467285 1.22290039 447.90161133 C-6.21137866 442.30015024 -13.30650592 436.37093448 -20.2421875 430.16796875 C-20.9741333 429.52214844 -21.7060791 428.87632812 -22.46020508 428.2109375 C-28.60633687 422.74933472 -34.5172562 417.07916705 -40.32885742 411.26660156 C-41.80174722 409.79590465 -43.28249015 408.33343341 -44.76367188 406.87109375 C-51.03353708 400.63767556 -56.72735705 394.08198007 -62.2421875 387.16796875 C-63.16550902 386.07809257 -64.09512207 384.99346326 -65.03515625 383.91796875 C-109.81042655 332.49579862 -138.12243047 268.97259343 -157.2421875 204.16796875 C-157.48807617 203.35215332 -157.73396484 202.53633789 -157.98730469 201.69580078 C-161.7013945 189.35877064 -164.25414639 176.85408007 -166.66015625 164.203125 C-167.19242056 161.42749163 -167.74394267 158.6567139 -168.3046875 155.88671875 C-176.48799872 115.08074791 -178.82758293 74.68001016 -178.2421875 33.16796875 C-158.89891921 26.28480628 -139.14275004 21.15378692 -119.2421875 16.16796875 C-117.63053711 15.76167236 -117.63053711 15.76167236 -115.98632812 15.34716797 C-84.83858668 7.63738554 -52.52919189 3.55687884 -20.55151367 1.44580078 C-17.23652952 1.20835412 -17.23652952 1.20835412 -13.95776367 0.64672852 C-9.2861609 0.04478272 -4.70514052 0.00613358 0 0 Z M-46.2421875 17.16796875 C-47.24266113 17.28011719 -48.24313477 17.39226562 -49.27392578 17.5078125 C-55.62575761 18.22953563 -61.93266854 19.14260927 -68.2421875 20.16796875 C-69.47694824 20.3676123 -70.71170898 20.56725586 -71.98388672 20.77294922 C-119.91596988 27.56009417 -119.91596988 27.56009417 -165.2421875 43.16796875 C-165.53878736 60.61032208 -164.8471953 77.7992224 -163.2421875 95.16796875 C-163.14566895 96.24739746 -163.04915039 97.32682617 -162.94970703 98.43896484 C-161.1653465 117.88527168 -157.90539045 137.0036927 -154.2421875 156.16796875 C-154.11523499 156.83431335 -153.98828247 157.50065796 -153.85748291 158.18719482 C-150.75310837 174.42996725 -147.13845323 190.3700727 -142.2421875 206.16796875 C-142.02175781 206.88726562 -141.80132812 207.6065625 -141.57421875 208.34765625 C-140.55220537 211.68003927 -139.5151503 215.00703071 -138.45703125 218.328125 C-137.61403539 220.9753086 -136.79662964 223.62873364 -135.99609375 226.2890625 C-135.78605713 226.9802417 -135.57602051 227.6714209 -135.35961914 228.38354492 C-134.7858208 230.27419798 -134.21692651 232.16633748 -133.6484375 234.05859375 C-131.85951163 239.56282004 -129.50347234 244.84561661 -127.2421875 250.16796875 C-126.38177169 252.23133713 -125.52239898 254.29514078 -124.6640625 256.359375 C-104.15489081 305.39161433 -77.25644479 350.364257 -41.421875 389.76953125 C-39.93856387 391.40170515 -38.46493358 393.04271793 -37 394.69140625 C-30.27605927 402.25293129 -23.33982339 409.52256537 -15.64453125 416.10546875 C-13.72343394 417.75480108 -11.82513498 419.42268228 -9.93359375 421.10546875 C-3.49290446 426.81029903 3.05123346 432.37219261 9.8828125 437.60546875 C10.49777588 438.0962793 11.11273926 438.58708984 11.74633789 439.09277344 C13.68416833 440.60655683 13.68416833 440.60655683 16.7578125 442.16796875 C21.58016701 441.43683758 25.96133184 437.41784377 29.8828125 434.60546875 C30.63763916 434.06752686 31.39246582 433.52958496 32.17016602 432.9753418 C41.06237614 426.5855194 49.35586983 419.64333519 57.4453125 412.26171875 C59.41436841 410.47892489 61.41671452 408.75678428 63.4453125 407.04296875 C72.85543697 398.84271743 81.75887067 389.74468351 89.7578125 380.16796875 C90.91023438 378.84925781 90.91023438 378.84925781 92.0859375 377.50390625 C140.83191847 321.46565065 173.48477584 250.65773275 188.16503906 178.08691406 C188.76153411 175.14964272 189.38064296 172.21768138 190 169.28515625 C198.61498883 127.55076721 201.22248728 85.69286006 200.7578125 43.16796875 C120.70547047 17.89297132 37.53842259 7.22930013 -46.2421875 17.16796875 Z " fill="#040104" transform="translate(383.2421875,77.83203125)"/>
<path d="M0 0 C9.32797263 -0.0930829 18.65578296 -0.16395774 27.98412037 -0.20724869 C32.3166487 -0.22803651 36.64885698 -0.25619092 40.98120117 -0.30175781 C45.16985361 -0.34553275 49.35820011 -0.36920315 53.54706383 -0.37950897 C55.13731381 -0.38684404 56.72754891 -0.40116625 58.31766701 -0.42292023 C68.68567425 -0.55899441 78.64763511 -0.46030407 87 6.5 C87.99 7.7375 87.99 7.7375 89 9 C89.5775 9.70125 90.155 10.4025 90.75 11.125 C93.93785339 15.90678008 93.42748185 21.48231757 93 27 C91.27318967 32.180431 88.47912179 34.92609289 84 38 C80.625 38.8125 80.625 38.8125 78 39 C78 39.66 78 40.32 78 41 C78.99 41.0928125 78.99 41.0928125 80 41.1875 C86.33909369 42.90433787 91.32303066 46.55808538 95 52 C97.34274258 56.68548516 96.4909336 62.9177215 96 68 C94.84601608 71.21822239 93.29011536 73.48332242 91 76 C89.7625 77.36125 89.7625 77.36125 88.5 78.75 C78.94529469 85.91605246 66.33047467 85.54924096 54.98046875 85.390625 C53.38479835 85.3831439 51.78911863 85.37745984 50.19343567 85.37347412 C46.03898749 85.35836444 41.88511874 85.31921397 37.730896 85.2746582 C33.4736718 85.23338445 29.21635193 85.21539531 24.95898438 85.1953125 C16.63906009 85.15270147 8.31960257 85.08463394 0 85 C0 84.34 0 83.68 0 83 C2.475 82.505 2.475 82.505 5 82 C4.67 55.93 4.34 29.86 4 3 C2.68 2.67 1.36 2.34 0 2 C0 1.34 0 0.68 0 0 Z " fill="#010103" transform="translate(409,581)"/>
<path d="M0 0 C5.27216362 0.41350303 8.27385398 1.17034992 12 5 C14.4220932 8.72629723 15.41299456 12.47666179 16.4375 16.75 C18.89941169 26.99104501 21.91048819 35.94032546 31 42 C29.60812281 45.36370321 28.20568604 47.21906331 25 49 C21.8125 49.25 21.8125 49.25 19 49 C18.67 48.67 18.34 48.34 18 48 C19.10938353 54.30596952 20.93197901 59.37529486 24 65 C22.42077594 66.57922406 20.80556126 66.207659 18.625 66.25 C17.83351563 66.27578125 17.04203125 66.3015625 16.2265625 66.328125 C13.52975122 65.93070018 12.69270985 65.07493465 11 63 C11.3846179 68.67311399 11.82305585 71.82305585 16 76 C16.66 76.33 17.32 76.66 18 77 C18 77.66 18 78.32 18 79 C13.32517708 80.49594333 8.64398011 80.54799337 4 79 C4.48210937 79.73605469 4.96421875 80.47210938 5.4609375 81.23046875 C6.09257812 82.20628906 6.72421875 83.18210937 7.375 84.1875 C8.00148438 85.15042969 8.62796875 86.11335938 9.2734375 87.10546875 C12.32736116 92.22528194 13.52732668 95.9884759 13 102 C11.42275698 105.98066095 10.58999089 107.60667274 7 110 C6.59910156 109.0821875 6.19820313 108.164375 5.78515625 107.21875 C2.16653152 99.28565274 -1.47757758 92.93323833 -9 88 C-9.66 88 -10.32 88 -11 88 C-10.61328125 88.40089844 -10.2265625 88.80179687 -9.828125 89.21484375 C-3.11793101 96.5395852 -0.47597443 102.92804858 -0.859375 112.91015625 C-0.90578125 113.59980469 -0.9521875 114.28945312 -1 115 C-9.01283766 111.07534482 -14.50255403 105.22928464 -18 97 C-18.46450943 103.50313209 -17.32575612 107.4174808 -14 113 C-20.76136485 112.20454531 -24.56564538 108.78124455 -28.6875 103.6875 C-31.49341781 99.93799921 -33.4107462 96.39381934 -35 92 C-37.04377361 93.67070382 -37.92036564 94.56044955 -38.3984375 97.19921875 C-38.34238011 103.15064447 -37.4204977 107.55388018 -35 113 C-38.77600178 113.55066693 -40.88126304 113.69293403 -44.17578125 111.65234375 C-48.2843459 108.23479911 -51.0538641 105.44028141 -52 100 C-52.125 97.125 -52.125 97.125 -52 95 C-52.66 95 -53.32 95 -54 95 C-54.185625 95.70125 -54.37125 96.4025 -54.5625 97.125 C-57.73809099 103.47618198 -63.57355754 106.57743367 -69.88671875 109.3359375 C-72 110 -72 110 -76 110 C-74.9340216 99.97980305 -72.06489975 91.01754758 -64.0546875 84.390625 C-62.40870928 83.20445446 -60.70884493 82.09366076 -59 81 C-60.6396875 80.443125 -60.6396875 80.443125 -62.3125 79.875 C-65.34817679 78.57223992 -65.98797021 78.01785066 -67.9375 75.125 C-68.95894054 72.12076311 -69.08993199 70.12116921 -69 67 C-68.08299316 67.01571045 -67.16598633 67.0314209 -66.22119141 67.04760742 C-62.77321559 67.09916391 -59.3256577 67.13655554 -55.87744141 67.16479492 C-54.39365111 67.17975184 -52.90990401 67.20012495 -51.42626953 67.22631836 C-37.57608546 67.91706768 -37.57608546 67.91706768 -25.33032227 62.58276367 C-23.22578019 60.19122182 -22.00685565 58.02056694 -21 55 C-22.051875 55.515625 -23.10375 56.03125 -24.1875 56.5625 C-26.6569183 57.60514328 -28.01727987 58 -30.75 58 C-33.85875689 56.61833027 -34.7013293 55.10238 -36 52 C-35.72774523 49.61777077 -35.06876699 48.13753399 -34 46 C-33.40832031 46.09539062 -32.81664062 46.19078125 -32.20703125 46.2890625 C-27.55619775 46.94154485 -24.27685626 47.34537279 -20 45 C-24.90629007 43.36456998 -29.86374163 43.22317878 -34.75 45 C-37.96160971 47.85476419 -39.91869235 51.27135949 -42 55 C-45.43859819 54.72087372 -46.6928044 54.34760044 -49.01953125 51.71484375 C-49.61121094 50.79832031 -50.20289063 49.88179687 -50.8125 48.9375 C-51.41707031 48.01839844 -52.02164062 47.09929687 -52.64453125 46.15234375 C-53.09183594 45.44207031 -53.53914063 44.73179687 -54 44 C-56.97 44.495 -56.97 44.495 -60 45 C-58.125 40.125 -58.125 40.125 -57 39 C-53.57465003 38.52985393 -51.07355894 38.19949844 -48.203125 40.33984375 C-46.73272714 41.82774635 -45.35864057 43.4093964 -44 45 C-41.53199953 43.84826645 -39.95216435 42.95216435 -38 41 C-38.2165625 40.41734375 -38.433125 39.8346875 -38.65625 39.234375 C-40.96239501 32.44405914 -41.61321289 26.15808127 -41 19 C-39.47298627 17.47298627 -37.94086171 17.69711216 -35.81640625 17.5 C-34.97142578 17.4175 -34.12644531 17.335 -33.25585938 17.25 C-32.36705078 17.1675 -31.47824219 17.085 -30.5625 17 C-28.81346178 16.83694327 -27.06474049 16.67043929 -25.31640625 16.5 C-24.53724854 16.4278125 -23.75809082 16.355625 -22.95532227 16.28125 C-20.92560054 16.0941818 -20.92560054 16.0941818 -19 15 C-18.835 14.01 -18.67 13.02 -18.5 12 C-18.335 11.01 -18.17 10.02 -18 9 C-15.14804778 7.57402389 -12.67538825 7.8679748 -9.5 7.875 C-8.3346875 7.87242187 -7.169375 7.86984375 -5.96875 7.8671875 C-3 8 -3 8 -1 9 C-0.67 6.03 -0.34 3.06 0 0 Z " fill="#FEFBFB" transform="translate(404,122)"/>
<path d="M0 0 C2.91159247 0.66282975 5.7978051 1.3895988 8.68383789 2.15527344 C20.07548805 5.11855399 31.56112972 5.98189154 43.27734375 6.74609375 C42.96484375 8.62109375 42.96484375 8.62109375 42.27734375 10.74609375 C38.75578411 13.09380018 36.76962532 13.12278989 32.58984375 13.37109375 C30.82060547 13.48324219 30.82060547 13.48324219 29.015625 13.59765625 C28.11199219 13.64664062 27.20835937 13.695625 26.27734375 13.74609375 C23.12038217 26.45093913 24.3568028 40.81106046 30.65625 52.25 C31.79934473 54.12259109 33.02854545 55.94227398 34.27734375 57.74609375 C33.43171875 58.44734375 32.58609375 59.14859375 31.71484375 59.87109375 C28.99255647 62.50123617 28.99255647 62.50123617 29.08984375 65.74609375 C30.94455822 70.4316882 34.33147385 72.67074459 38.65234375 75.05859375 C39.18859375 75.28546875 39.72484375 75.51234375 40.27734375 75.74609375 C40.00921875 76.63296875 39.74109375 77.51984375 39.46484375 78.43359375 C38.87594434 81.94376476 38.87594434 81.94376476 41.71484375 84.49609375 C42.56046875 85.23859375 43.40609375 85.98109375 44.27734375 86.74609375 C44.27734375 87.40609375 44.27734375 88.06609375 44.27734375 88.74609375 C39.6288486 91.14531705 35.36648301 90.94566784 30.27734375 90.74609375 C30.38046875 91.96296875 30.48359375 93.17984375 30.58984375 94.43359375 C30.60950241 98.12286872 30.35575894 98.64704298 27.90234375 101.74609375 C25.27734375 103.74609375 25.27734375 103.74609375 23.27734375 103.74609375 C22.84421875 102.94171875 22.41109375 102.13734375 21.96484375 101.30859375 C20.50947316 98.50327044 20.50947316 98.50327044 17.58984375 97.93359375 C16.44515625 97.84078125 16.44515625 97.84078125 15.27734375 97.74609375 C15.19484375 98.61234375 15.11234375 99.47859375 15.02734375 100.37109375 C14.15381063 104.30199278 12.77538011 106.60570518 10.27734375 109.74609375 C8.02734375 111.12109375 8.02734375 111.12109375 6.27734375 111.74609375 C5.82359375 110.77671875 5.36984375 109.80734375 4.90234375 108.80859375 C3.61948154 105.67529793 3.61948154 105.67529793 1.27734375 104.74609375 C0.94734375 107.05609375 0.61734375 109.36609375 0.27734375 111.74609375 C-1.04265625 111.74609375 -2.36265625 111.74609375 -3.72265625 111.74609375 C-4.38265625 110.75609375 -5.04265625 109.76609375 -5.72265625 108.74609375 C-5.99078125 109.52984375 -6.25890625 110.31359375 -6.53515625 111.12109375 C-7.72265625 113.74609375 -7.72265625 113.74609375 -10.72265625 115.74609375 C-11.91498238 117.7961333 -11.91498238 117.7961333 -12.72265625 119.74609375 C-15.37017629 117.16824529 -17.6669769 114.82961277 -19.72265625 111.74609375 C-20.21765625 112.40609375 -20.71265625 113.06609375 -21.22265625 113.74609375 C-24.83699262 116.63756285 -27.15229867 115.96372983 -31.72265625 115.74609375 C-33.20765625 116.24109375 -33.20765625 116.24109375 -34.72265625 116.74609375 C-34.39265625 114.10609375 -34.06265625 111.46609375 -33.72265625 108.74609375 C-34.27695312 109.08511719 -34.83125 109.42414063 -35.40234375 109.7734375 C-38.2153356 110.95262095 -39.8518202 110.74231927 -42.84765625 110.30859375 C-46.41411877 109.67641305 -46.41411877 109.67641305 -49.72265625 110.74609375 C-50.2681263 105.65503993 -50.08685061 102.58109063 -47.22265625 98.24609375 C-45.37804028 95.98665983 -44.4055293 94.90273846 -41.54296875 94.24609375 C-39.34765625 94.24609375 -39.34765625 94.24609375 -35.72265625 94.74609375 C-36.21765625 91.77609375 -36.21765625 91.77609375 -36.72265625 88.74609375 C-38.70265625 88.08609375 -40.68265625 87.42609375 -42.72265625 86.74609375 C-40.36327779 83.96539771 -38.544466 82.81987501 -34.89453125 82.4921875 C-26.94816072 82.81513113 -26.94816072 82.81513113 -23.90234375 85.12890625 C-22.59765625 86.74609375 -22.59765625 86.74609375 -20.72265625 89.74609375 C-17.3925756 91.41113407 -14.30879845 91.32962084 -10.72265625 90.74609375 C-2.40883244 87.6890432 4.04143826 82.95050477 10.27734375 76.74609375 C7.50073775 71.66216727 4.42733761 67.08550212 0.90234375 62.49609375 C-0.1661143 61.08780807 -1.23378928 59.67892803 -2.30078125 58.26953125 C-2.85830078 57.53444336 -3.41582031 56.79935547 -3.99023438 56.04199219 C-6.97219223 52.09014162 -9.91146632 48.1070117 -12.84765625 44.12109375 C-13.43224609 43.32759521 -14.01683594 42.53409668 -14.61914062 41.71655273 C-19.72180463 34.77467262 -24.74440375 27.77758864 -29.72265625 20.74609375 C-25.33282361 16.00399059 -20.31772124 12.34314086 -15.09765625 8.55859375 C-14.23914063 7.93017578 -13.380625 7.30175781 -12.49609375 6.65429688 C-3.00307434 -0.28005715 -3.00307434 -0.28005715 0 0 Z " fill="#FEFCFC" transform="translate(365.72265625,293.25390625)"/>
<path d="M0 0 C14.19 0 28.38 0 43 0 C43 0.66 43 1.32 43 2 C42.01 2 41.02 2 40 2 C46.6633126 19.62107628 53.59074109 37.13334328 60.72567749 54.56878662 C61.57424472 56.64552775 62.41932763 58.72369605 63.26089478 60.80328369 C64.45556064 63.75198484 65.66345109 66.69492115 66.875 69.63671875 C67.23192429 70.52400162 67.58884857 71.41128448 67.95658875 72.32545471 C69.78510948 76.72148592 71.36746281 79.78946019 75 83 C75 83.66 75 84.32 75 85 C64.44 85 53.88 85 43 85 C43 84.34 43 83.68 43 83 C43.66 83 44.32 83 45 83 C44.54464901 81.43662827 44.08557224 79.87434151 43.625 78.3125 C43.36976563 77.44238281 43.11453125 76.57226562 42.8515625 75.67578125 C42.02382686 73.07486881 41.01369191 70.53422977 40 68 C27.13 68 14.26 68 1 68 C-0.65 72.95 -2.3 77.9 -4 83 C-3.01 83 -2.02 83 -1 83 C-1 83.66 -1 84.32 -1 85 C-10.57 85 -20.14 85 -30 85 C-30 84.34 -30 83.68 -30 83 C-28.515 82.01 -28.515 82.01 -27 81 C-25.87463453 78.92170922 -25.87463453 78.92170922 -24.98217773 76.42797852 C-24.61396408 75.47337234 -24.24575043 74.51876617 -23.86637878 73.53523254 C-23.47605972 72.49364487 -23.08574066 71.45205719 -22.68359375 70.37890625 C-22.06373344 68.75906075 -22.06373344 68.75906075 -21.43135071 67.10649109 C-20.09059356 63.59535256 -18.7638474 60.07910426 -17.4375 56.5625 C-16.5290474 54.17452795 -15.61986841 51.78683213 -14.70996094 49.39941406 C-8.71164287 33.63575154 -2.75876808 17.85299895 3 2 C2.01 2 1.02 2 0 2 C0 1.34 0 0.68 0 0 Z " fill="#030305" transform="translate(206,581)"/>
<path d="M0 0 C13.86 0 27.72 0 42 0 C42 0.66 42 1.32 42 2 C41.01 2 40.02 2 39 2 C46.99332656 22.13791854 55.03634502 42.25214023 63.375 62.25 C63.69687286 63.02307495 64.01874573 63.7961499 64.35037231 64.59265137 C65.26023984 66.77614649 66.17247396 68.95863215 67.0859375 71.140625 C67.35295975 71.78052368 67.61998199 72.42042236 67.89509583 73.07971191 C69.87619962 78.94766549 69.87619962 78.94766549 74 83 C74 83.66 74 84.32 74 85 C63.44 85 52.88 85 42 85 C42 84.34 42 83.68 42 83 C42.66 82.67 43.32 82.34 44 82 C43.79503906 81.33613281 43.59007812 80.67226563 43.37890625 79.98828125 C43.10949219 79.10527344 42.84007812 78.22226562 42.5625 77.3125 C42.29566406 76.44238281 42.02882813 75.57226562 41.75390625 74.67578125 C41.04214945 72.1495978 40.51471428 69.5735714 40 67 C26.8 67 13.6 67 0 67 C-1.32 72.28 -2.64 77.56 -4 83 C-3.34 83 -2.68 83 -2 83 C-2 83.66 -2 84.32 -2 85 C-11.57 85 -21.14 85 -31 85 C-31 84.34 -31 83.68 -31 83 C-30.08309135 82.11423279 -30.08309135 82.11423279 -29.1476593 81.21057129 C-26.76311118 78.75617193 -25.85437069 76.81248771 -24.63745117 73.63085938 C-24.21989059 72.55453247 -23.80233002 71.47820557 -23.37211609 70.3692627 C-22.93349747 69.20584351 -22.49487885 68.04242432 -22.04296875 66.84375 C-21.34389153 65.02562805 -21.34389153 65.02562805 -20.63069153 63.17077637 C-19.64173723 60.59756536 -18.65977442 58.0218387 -17.68334961 55.44384766 C-16.45546205 52.20202823 -15.21622512 48.96472124 -13.97231865 45.72901917 C-8.40257499 31.23717661 -3.01000648 16.69573237 2 2 C1.34 2 0.68 2 0 2 C0 1.34 0 0.68 0 0 Z " fill="#030305" transform="translate(552,581)"/>
<path d="M0 0 C10.89 0 21.78 0 33 0 C33 0.66 33 1.32 33 2 C32.01 2.33 31.02 2.66 30 3 C29.67 23.46 29.34 43.92 29 65 C57.71 64.505 57.71 64.505 87 64 C87.33 63.01 87.66 62.02 88 61 C88.66 61 89.32 61 90 61 C90 70.24 90 79.48 90 89 C89.34 89 88.68 89 88 89 C87.67 88.01 87.34 87.02 87 86 C58.29 85.67 29.58 85.34 0 85 C0 84.34 0 83.68 0 83 C1.485 82.505 1.485 82.505 3 82 C3 55.93 3 29.86 3 3 C2.01 2.67 1.02 2.34 0 2 C0 1.34 0 0.68 0 0 Z " fill="#030305" transform="translate(301,581)"/>
<path d="M0 0 C2.12563103 0.11376617 4.2505261 0.24135631 6.375 0.375 C8.15003906 0.47941406 8.15003906 0.47941406 9.9609375 0.5859375 C13 1 13 1 15 3 C15.125 5.625 15.125 5.625 15 8 C16.65 7.34 18.3 6.68 20 6 C20 4.68 20 3.36 20 2 C22.86724686 2.57344937 23.8614515 2.8614515 26 5 C26.265625 7.75 26.265625 7.75 26.25 11 C26.25773437 12.60875 26.25773437 12.60875 26.265625 14.25 C26 17 26 17 24 19 C23.01 19 22.02 19 21 19 C26.21652688 31.32271881 26.21652688 31.32271881 36 40 C38.65188375 40.79639205 41.29222398 41.40140926 44 42 C43.73445313 43.03898437 43.46890625 44.07796875 43.1953125 45.1484375 C41.2701308 52.73270717 39.40700061 60.29852295 38 68 C37.16855469 67.76603516 37.16855469 67.76603516 36.3203125 67.52734375 C35.59585938 67.33269531 34.87140625 67.13804687 34.125 66.9375 C33.40570313 66.74027344 32.68640625 66.54304688 31.9453125 66.33984375 C29.92726407 65.78867393 29.92726407 65.78867393 28 67 C27.67 65.35 27.34 63.7 27 62 C26.401875 62.33 25.80375 62.66 25.1875 63 C23 64 23 64 20 64 C20.33 62.35 20.66 60.7 21 59 C19.989375 59.495 18.97875 59.99 17.9375 60.5 C14.22011812 62.11592314 11.06043343 62.24859797 7 62 C7 61.34 7 60.68 7 60 C7.969375 59.7525 8.93875 59.505 9.9375 59.25 C10.948125 58.8375 11.95875 58.425 13 58 C13.73595202 55.97445397 13.73595202 55.97445397 14 54 C13.41992188 54.28875 12.83984375 54.5775 12.2421875 54.875 C3.93573265 58.82262211 3.93573265 58.82262211 -1 58 C-1.99 57.01 -2.98 56.02 -4 55 C-0.04 52.525 -0.04 52.525 4 50 C3.113125 50.0825 2.22625 50.165 1.3125 50.25 C-2.71433365 49.94608803 -4.18236593 48.81763407 -7 46 C-7 45.34 -7 44.68 -7 44 C-5.329375 43.505 -5.329375 43.505 -3.625 43 C-1.15203321 41.97584204 -0.22232628 41.48377436 0.91015625 39.01953125 C1.53156564 36.56193256 1.53156564 36.56193256 2 33 C1.319375 33.350625 0.63875 33.70125 -0.0625 34.0625 C-3.99097245 35.3162678 -6.04835461 35.24788802 -10 34 C-13.2389537 30.75380032 -15.55035688 27.34892935 -17 23 C-16.2575 23.0825 -15.515 23.165 -14.75 23.25 C-11.21842973 22.92894816 -10.23369636 21.64734383 -8 19 C-10.0140476 15.9789286 -11.63279613 14.39332574 -15 13 C-12.13824239 10.6681975 -9.44267513 9.30263383 -6 8 C-5.67 7.67 -5.34 7.34 -5 7 C-3.00041636 6.95919217 -0.99954746 6.95745644 1 7 C1.69159401 5.15274948 1.69159401 5.15274948 2 3 C1.34 2.01 0.68 1.02 0 0 Z " fill="#FEFAFA" transform="translate(283,171)"/>
<path d="M0 0 C0.33 0 0.66 0 1 0 C1 12.21 1 24.42 1 37 C1.66 37 2.32 37 3 37 C3.08636719 36.43152344 3.17273438 35.86304688 3.26171875 35.27734375 C4.44406751 28.77984916 6.40110946 23.90316229 11.63671875 19.6796875 C16.77425465 16.37781049 21.11680203 16.5092429 26.9375 17.5 C27.618125 17.665 28.29875 17.83 29 18 C29 18.66 29 19.32 29 20 C28.01 20.495 28.01 20.495 27 21 C26.26924352 23.3140622 25.59861742 25.64828869 25 28 C24.34 28 23.68 28 23 28 C22.67 26.35 22.34 24.7 22 23 C18.7 23 15.4 23 12 23 C9.09361772 28.69773624 8.5628268 33.21414059 8.6875 39.5625 C8.68427734 40.38685547 8.68105469 41.21121094 8.67773438 42.06054688 C8.71903771 46.7578629 9.20479173 50.58707767 11 55 C15.88317511 56.01871227 19.61543745 56.65965743 24.0625 54.0625 C25.031875 53.381875 26.00125 52.70125 27 52 C25.49362786 56.06720478 22.74584108 58.90430918 19 61 C14.47444574 62.13589609 11.69182766 61.40465391 7.6875 59.0625 C3.68393326 55.20074897 2.22956707 50.08130025 1.82421875 44.640625 C1.81421293 42.75953051 1.89754569 40.87832897 2 39 C-1.96 39 -5.92 39 -10 39 C-10 38.34 -10 37.68 -10 37 C-7.525 36.505 -7.525 36.505 -5 36 C-4.67 32.04 -4.34 28.08 -4 24 C-8.29 24 -12.58 24 -17 24 C-17.020625 25.918125 -17.04125 27.83625 -17.0625 29.8125 C-17.07410156 30.89144531 -17.08570313 31.97039062 -17.09765625 33.08203125 C-17.13624766 36.06512169 -17.13624766 36.06512169 -16 39 C-20.29 39 -24.58 39 -29 39 C-29 38.34 -29 37.68 -29 37 C-27.35 37 -25.7 37 -24 37 C-23.89187988 36.40719238 -23.78375977 35.81438477 -23.67236328 35.20361328 C-22.42463432 28.6431387 -20.75512027 22.28000303 -18.875 15.875 C-18.59785156 14.91851562 -18.32070313 13.96203125 -18.03515625 12.9765625 C-17.36043779 10.64994713 -16.6820117 8.32448578 -16 6 C-17.98 6 -19.96 6 -22 6 C-22.99 8.31 -23.98 10.62 -25 13 C-25.99 13 -26.98 13 -28 13 C-27.88359749 9.1587173 -26.46205283 6.98502885 -24 4.1875 C-21.26175255 1.6217844 -19.52378444 0.53393691 -15.75 0.5 C-14.16336178 0.63153477 -12.57967213 0.80161104 -11 1 C-8.97921975 1.1673091 -6.95838581 1.33397087 -4.9375 1.5 C-3.29125911 1.66259169 -1.64526209 1.82778565 0 2 C0 1.34 0 0.68 0 0 Z " fill="#FAEEEF" transform="translate(399,424)"/>
<path d="M0 0 C4.53550082 -0.06930307 9.06912563 -0.12890057 13.60473633 -0.16479492 C15.14386255 -0.17977543 16.68294688 -0.2001671 18.22192383 -0.22631836 C34.57398021 -0.49699505 34.57398021 -0.49699505 42 3 C44.48386059 6.72579089 44.3804212 8.58711402 44 13 C42.70933834 16.05683024 41.84292209 17.54659592 38.90942383 19.12451172 C35.12961176 20.26191258 31.54333721 20.24825856 27.63671875 20.1953125 C26.84473587 20.1924826 26.05275299 20.18965271 25.23677063 20.18673706 C22.72019001 20.17558863 20.20397211 20.15049422 17.6875 20.125 C15.97591662 20.11496329 14.26432763 20.10583864 12.55273438 20.09765625 C8.36823918 20.07737271 4.18452312 20.03821482 0 20 C0 13.4 0 6.8 0 0 Z " fill="#F6F6F6" transform="translate(438,629)"/>
<path d="M0 0 C3.196875 -0.061875 6.39375 -0.12375 9.6875 -0.1875 C11.18543091 -0.22846802 11.18543091 -0.22846802 12.71362305 -0.27026367 C17.63856627 -0.31641175 21.01784091 -0.24384952 25 3 C27 5 27 5 27.3125 8.375 C26.99258956 12.0859611 26.5224581 13.37243948 24 16 C24.31839844 16.54527344 24.63679688 17.09054687 24.96484375 17.65234375 C26.1672806 20.37937977 26.37275106 22.59514957 26.5625 25.5625 C26.76883806 28.66599292 27.01136396 31.03409187 28 34 C26.02 34 24.04 34 22 34 C21.96261719 33.24074219 21.92523438 32.48148438 21.88671875 31.69921875 C21.82097656 30.70535156 21.75523437 29.71148438 21.6875 28.6875 C21.62949219 27.70136719 21.57148438 26.71523438 21.51171875 25.69921875 C21.17085409 23.04538424 21.17085409 23.04538424 19.90625 21.1875 C15.49997752 18.44260895 8.9611443 19.22757543 4 19 C4 23.95 4 28.9 4 34 C2.68 34 1.36 34 0 34 C0 22.78 0 11.56 0 0 Z " fill="#040406" transform="translate(418,694)"/>
<path d="M0 0 C0.66 0 1.32 0 2 0 C4.00285421 4.76514933 5.99640041 9.53404483 7.98144531 14.30664062 C8.65793921 15.92944766 9.33695818 17.5512045 10.01855469 19.171875 C10.99821113 21.50248625 11.9687047 23.83673171 12.9375 26.171875 C13.24373291 26.89493835 13.54996582 27.61800171 13.86547852 28.36297607 C15.30296981 31.85247688 16 34.16740382 16 38 C6.43 38 -3.14 38 -13 38 C-12.18443604 33.10661624 -11.03417767 28.98149379 -9.27734375 24.4140625 C-9.01240616 23.71227875 -8.74746857 23.010495 -8.47450256 22.28744507 C-7.6339973 20.06463276 -6.78588461 17.84481531 -5.9375 15.625 C-5.36342575 14.11086904 -4.78985281 12.59654791 -4.21679688 11.08203125 C-2.81698779 7.38579558 -1.4103525 3.69222483 0 0 Z " fill="#F4F4F4" transform="translate(225,597)"/>
<path d="M0 0 C2.89508027 3.42466152 4.49071045 7.20006677 6.13671875 11.3203125 C6.42102249 12.0201828 6.70532623 12.7200531 6.99824524 13.44113159 C7.59515721 14.91420419 8.18919489 16.3884444 8.78051758 17.86376953 C9.68829998 20.12699447 10.60611138 22.38595512 11.52539062 24.64453125 C12.10476173 26.07788462 12.68355799 27.5114705 13.26171875 28.9453125 C13.6741407 29.96094772 13.6741407 29.96094772 14.09489441 30.99710083 C16 35.76849741 16 35.76849741 16 38 C6.1 38 -3.8 38 -14 38 C-13.12357968 33.61789838 -11.88460874 29.69701783 -10.3125 25.546875 C-9.91865112 24.49563446 -9.91865112 24.49563446 -9.5168457 23.42315674 C-8.96392484 21.95002933 -8.40912047 20.47760765 -7.85253906 19.00585938 C-6.99823942 16.74534141 -6.15104844 14.48225063 -5.3046875 12.21875 C-4.76604343 10.78630092 -4.22699517 9.35400375 -3.6875 7.921875 C-3.30621948 6.90320343 -3.30621948 6.90320343 -2.91723633 5.86395264 C-1.11541863 1.11541863 -1.11541863 1.11541863 0 0 Z " fill="#F4F4F4" transform="translate(571,597)"/>
<path d="M0 0 C4.91128067 -0.04949353 9.82241566 -0.08576382 14.73388672 -0.10986328 C16.40415985 -0.1199115 18.07441542 -0.13355236 19.74462891 -0.15087891 C22.14750504 -0.17517926 24.55014827 -0.18649487 26.953125 -0.1953125 C27.69806213 -0.20563507 28.44299927 -0.21595764 29.21051025 -0.22659302 C32.93827509 -0.22739699 35.90012596 -0.21183874 39 2 C40.54163175 5.0832635 40.29747535 7.60878099 40 11 C37.6029026 13.56831864 35.38490936 14.36452848 32 15 C29.53762233 15.08242194 27.07311232 15.10743299 24.609375 15.09765625 C23.90476135 15.0962413 23.20014771 15.09482635 22.47418213 15.09336853 C20.23274416 15.08778933 17.99140757 15.07524073 15.75 15.0625 C14.22656395 15.05748231 12.70312632 15.05291987 11.1796875 15.04882812 C7.4530549 15.03867934 3.7266404 15.01910009 0 15 C0 10.05 0 5.1 0 0 Z " fill="#F8F8F8" transform="translate(438,598)"/>
<path d="M0 0 C1.4540625 0.0309375 1.4540625 0.0309375 2.9375 0.0625 C4.64851994 4.74315582 6.35746296 9.42456251 8.06445312 14.10668945 C8.64590801 15.70064982 9.2279382 17.29440045 9.81054688 18.88793945 C10.64603218 21.17344645 11.47947139 23.45969037 12.3125 25.74609375 C12.57498535 26.46276718 12.8374707 27.17944061 13.10791016 27.91783142 C14.9375 32.94862829 14.9375 32.94862829 14.9375 34.0625 C12.9575 34.0625 10.9775 34.0625 8.9375 34.0625 C8.2775 30.7625 7.6175 27.4625 6.9375 24.0625 C1.9875 24.0625 -2.9625 24.0625 -8.0625 24.0625 C-8.3925 25.7125 -8.7225 27.3625 -9.0625 29.0625 C-9.69687344 30.7417238 -10.35539322 32.41258418 -11.0625 34.0625 C-12.7125 34.0625 -14.3625 34.0625 -16.0625 34.0625 C-4.320361 0.08817063 -4.320361 0.08817063 0 0 Z " fill="#0D0D0F" transform="translate(379.0625,693.9375)"/>
<path d="M0 0 C3.85544798 1.99657127 5.59805092 3.39707638 8 7 C8 8.32 8 9.64 8 11 C6.35 11 4.7 11 3 11 C2.731875 10.195625 2.46375 9.39125 2.1875 8.5625 C1.795625 7.716875 1.40375 6.87125 1 6 C-2.52994613 4.82335129 -5.29455413 4.80149397 -9 5 C-9.99 5.66 -10.98 6.32 -12 7 C-12.25030977 9.58380177 -12.25030977 9.58380177 -12 12 C-7.93365291 13.5974935 -4.0987836 15.02590763 0.1875 15.875 C4.5607048 17.16545388 6.36367489 18.29266781 9 22 C9.67096636 26.17490177 9.49348946 28.17751757 7.3125 31.8125 C2.75139903 36.12705497 -1.55120031 36.38936775 -7.62890625 36.25390625 C-11.79532526 35.80774935 -13.98137371 34.05375133 -16.8125 31.125 C-18.23893649 28.57242944 -18.24002263 26.8802715 -18 24 C-16.68 24 -15.36 24 -14 24 C-13.54625 24.969375 -13.0925 25.93875 -12.625 26.9375 C-11.34213779 30.07079582 -11.34213779 30.07079582 -9 31 C-6.89044938 31.19738723 -6.89044938 31.19738723 -4.5625 31.1875 C-3.38880859 31.20876953 -3.38880859 31.20876953 -2.19140625 31.23046875 C0.29205987 31.14086064 0.29205987 31.14086064 3 29 C3.2502157 25.91634129 3.2502157 25.91634129 3 23 C1.89140625 22.68546875 0.7828125 22.3709375 -0.359375 22.046875 C-1.82311608 21.61525904 -3.28664695 21.18292971 -4.75 20.75 C-5.47960937 20.54503906 -6.20921875 20.34007812 -6.9609375 20.12890625 C-11.22991813 18.84821206 -14.26537701 17.73286582 -17 14 C-17.45468446 10.81720877 -17.71154438 9.01359974 -17 6 C-12.00114193 -0.18279814 -7.63792741 -0.86688133 0 0 Z " fill="#0E0E10" transform="translate(488,693)"/>
<path d="M0 0 C2.88791298 1.99403515 4.71393775 3.87240423 6.625 6.8125 C6.625 7.8025 6.625 8.7925 6.625 9.8125 C4.3125 10.125 4.3125 10.125 1.625 9.8125 C0 7.375 0 7.375 -1.375 4.8125 C-4.98072704 3.61059099 -7.5852435 3.48579685 -11.375 3.8125 C-14.12829021 5.60812405 -15.90127461 6.86504922 -17.375 9.8125 C-18.27928035 18.54011344 -18.27928035 18.54011344 -15.5 26.5625 C-12.80353862 29.41757676 -11.99206507 29.74264358 -8.0625 30.1875 C-4.26017145 30.13767382 -4.26017145 30.13767382 -1.5625 27.5625 C0.21799706 25.32416083 1.55324033 23.44318283 2.625 20.8125 C3.945 20.8125 5.265 20.8125 6.625 20.8125 C6.23604749 26.25783513 4.4101047 28.93936961 0.625 32.8125 C-3.62372904 35.3827188 -7.53219899 35.45057175 -12.375 34.8125 C-16.68501494 33.48245633 -19.4821208 31.22908867 -21.8125 27.375 C-24.48249783 21.16435287 -24.82904643 13.63831069 -22.421875 7.3046875 C-17.27846092 -1.51724425 -9.46710127 -3.33101711 0 0 Z " fill="#0F0F11" transform="translate(334.375,694.1875)"/>
<path d="M0 0 C0 0.66 0 1.32 0 2 C-0.99 2.495 -0.99 2.495 -2 3 C-2.73075648 5.3140622 -3.40138258 7.64828869 -4 10 C-4.66 10 -5.32 10 -6 10 C-6.33 8.35 -6.66 6.7 -7 5 C-10.3 5 -13.6 5 -17 5 C-19.90638228 10.69773624 -20.4371732 15.21414059 -20.3125 21.5625 C-20.31733398 22.7990332 -20.31733398 22.7990332 -20.32226562 24.06054688 C-20.28096229 28.7578629 -19.79520827 32.58707767 -18 37 C-13.11682489 38.01871227 -9.38456255 38.65965743 -4.9375 36.0625 C-3.968125 35.381875 -2.99875 34.70125 -2 34 C-3.50637214 38.06720478 -6.25415892 40.90430918 -10 43 C-13.55014797 43.891073 -16.52262527 43.7972617 -19.7734375 42.04296875 C-24.19702686 38.64435741 -25.61709789 35.18415993 -26.5546875 29.8359375 C-27.44441676 20.22252135 -26.27011814 13.29984664 -21.1875 5.0625 C-14.6449631 -1.10617765 -8.82262558 -2.13881832 0 0 Z " fill="#FCF4F4" transform="translate(428,442)"/>
<path d="M0 0 C6.27 0 12.54 0 19 0 C19 1.32 19 2.64 19 4 C14.71 4 10.42 4 6 4 C7.32 4.66 8.64 5.32 10 6 C9.39671875 6.09796875 8.7934375 6.1959375 8.171875 6.296875 C1.25304504 7.59136577 -1.21174258 9.41696151 -5.25 15.25 C-5.8275 16.1575 -6.405 17.065 -7 18 C-10.43859819 17.72087372 -11.6928044 17.34760044 -14.01953125 14.71484375 C-14.61121094 13.79832031 -15.20289063 12.88179687 -15.8125 11.9375 C-16.41707031 11.01839844 -17.02164062 10.09929687 -17.64453125 9.15234375 C-18.09183594 8.44207031 -18.53914063 7.73179687 -19 7 C-20.98 7.33 -22.96 7.66 -25 8 C-23.125 3.125 -23.125 3.125 -22 2 C-18.57465003 1.52985393 -16.07355894 1.19949844 -13.203125 3.33984375 C-11.73272714 4.82774635 -10.35864057 6.4093964 -9 8 C-4.54599042 5.84978848 -2.3085675 4.61713501 0 0 Z " fill="#FDF1F2" transform="translate(369,159)"/>
<path d="M0 0 C2.4377963 -0.05397335 4.87439685 -0.09365616 7.3125 -0.125 C8.00279297 -0.14175781 8.69308594 -0.15851562 9.40429688 -0.17578125 C13.17135396 -0.21217794 14.78431704 -0.14378864 18 2 C18.5 5.4375 18.5 5.4375 18 9 C14.14013426 12.13658849 11.05681833 12.3350551 6.1875 12.1875 C4.44533203 12.14689453 4.44533203 12.14689453 2.66796875 12.10546875 C1.78753906 12.07066406 0.90710938 12.03585937 0 12 C0 8.04 0 4.08 0 0 Z " fill="#EDEDED" transform="translate(422,698)"/>
<path d="M0 0 C2.64 0 5.28 0 8 0 C8 5.61 8 11.22 8 17 C4.04 17 0.08 17 -4 17 C-2.68 11.39 -1.36 5.78 0 0 Z " fill="#CA2E34" transform="translate(387,429)"/>
<path d="M0 0 C0 0.66 0 1.32 0 2 C-0.99 2.495 -0.99 2.495 -2 3 C-2.73075648 5.3140622 -3.40138258 7.64828869 -4 10 C-4.66 10 -5.32 10 -6 10 C-6.33 8.35 -6.66 6.7 -7 5 C-13.12721324 4.27768156 -13.12721324 4.27768156 -18.77734375 6.11328125 C-20.29461729 7.61568223 -20.29461729 7.61568223 -22 10 C-22 7 -22 7 -19.8125 4.5 C-13.33111847 -1.26122803 -8.4638556 -2.05184378 0 0 Z " fill="#F8E7E7" transform="translate(428,442)"/>
<path d="M0 0 C0.33 0.66 0.66 1.32 1 2 C0.00390625 4.1640625 0.00390625 4.1640625 -1.4375 6.625 C-1.91058594 7.44226563 -2.38367188 8.25953125 -2.87109375 9.1015625 C-3.24363281 9.72804687 -3.61617188 10.35453125 -4 11 C-8.56454251 10.45660208 -11.9728176 9.20536179 -16 7 C-13.35478068 4.35478068 -10.33828651 3.55457481 -6.875 2.375 C-6.21628906 2.14554688 -5.55757813 1.91609375 -4.87890625 1.6796875 C-3.25438774 1.11463758 -1.62742029 0.55663723 0 0 Z " fill="#FCEFF0" transform="translate(341,234)"/>
<path d="M0 0 C3.65866294 4.32387438 5 8.34923902 5 14 C1.7 14 -1.6 14 -5 14 C-2.05357143 3.82142857 -2.05357143 3.82142857 0 0 Z " fill="#ECECEC" transform="translate(378,700)"/>
<path d="M0 0 C2.27734375 1.01953125 2.27734375 1.01953125 4 2 C1.12700258 4.87299742 -2.12618444 4.70850497 -6 5 C-6.99 5 -7.98 5 -9 5 C-9 4.34 -9 3.68 -9 3 C-9.66 3 -10.32 3 -11 3 C-11.33 3.66 -11.66 4.32 -12 5 C-12.99 5.33 -13.98 5.66 -15 6 C-14 3 -14 3 -12 1.3125 C-7.98455157 -0.44425869 -4.3284845 -0.59623132 0 0 Z " fill="#EF3F52" transform="translate(381,165)"/>
<path d="M0 0 C6.27 0 12.54 0 19 0 C19 1.32 19 2.64 19 4 C12.73 4 6.46 4 0 4 C0 2.68 0 1.36 0 0 Z " fill="#EE3649" transform="translate(369,159)"/>
<path d="M0 0 C0 3 0 3 -1.6796875 4.82421875 C-2.40414063 5.43910156 -3.12859375 6.05398438 -3.875 6.6875 C-4.59429687 7.31011719 -5.31359375 7.93273437 -6.0546875 8.57421875 C-8 10 -8 10 -10 10 C-10 9.34 -10 8.68 -10 8 C-8.38542921 6.56418526 -6.70780925 5.19855217 -5 3.875 C-4.071875 3.15054687 -3.14375 2.42609375 -2.1875 1.6796875 C-1.465625 1.12539063 -0.74375 0.57109375 0 0 Z " fill="#D84752" transform="translate(374,265)"/>
<path d="M0 0 C0.66 0 1.32 0 2 0 C2 0.66 2 1.32 2 2 C2.66 2 3.32 2 4 2 C4 2.66 4 3.32 4 4 C1.69 4.33 -0.62 4.66 -3 5 C-3.33 4.01 -3.66 3.02 -4 2 C-2.68 2 -1.36 2 0 2 C0 1.34 0 0.68 0 0 Z " fill="#F04B5B" transform="translate(392,140)"/>
<path d="M0 0 C1.65 0 3.3 0 5 0 C5.66 1.32 6.32 2.64 7 4 C2.25 3.125 2.25 3.125 0 2 C0 1.34 0 0.68 0 0 Z " fill="#D55C61" transform="translate(441,402)"/>
<path d="M0 0 C0.66 0.33 1.32 0.66 2 1 C1.67 1.99 1.34 2.98 1 4 C-2.5625 5.1875 -2.5625 5.1875 -6 6 C-4 4 -2 2 0 0 Z " fill="#CD3C41" transform="translate(427,310)"/>
<path d="M0 0 C1.98 0 3.96 0 6 0 C6 0.66 6 1.32 6 2 C4.02 2.66 2.04 3.32 0 4 C0 2.68 0 1.36 0 0 Z " fill="#F04E5F" transform="translate(369,159)"/>
</svg>
